# xmcd
#
# Track frame offsets: 
#        150
#        13648
#        28350
#        40455
#        58470
#        75041
#        84768
#        95920
#        107427
#        120667
#        131913
#        146502
#        160650
#
# Disc length: 2300 seconds
#
# Revision: 0
# Processed by: cddbd v1.5.2PL0 Copyright (c) Steve Scherf et al.
# Submitted via: ExactAudioCopy v1.0b4
#
DISCID=a708fa0d
DTITLE=Sonny Terry and Brownie McGhee - Preachin' The Blues (LP)
DYEAR=1960
DGENRE=Blues
TTITLE0=Better Day
TTITLE1=Confusion
TTITLE2=Dark Road
TTITLE3=John Henry
TTITLE4=Let Me Make A Little Money
TTITLE5=Old Jabo
TTITLE6=I Love You Baby
TTITLE7=Guitar Highway
TTITLE8=Heart In Sorrow
TTITLE9=Preachin' The Blues
TTITLE10=Can't Help Myself
TTITLE11=Best Of Friends
TTITLE12=If You Lose Your Money
EXTD=
EXTT0=
EXTT1=
EXTT2=
EXTT3=
EXTT4=
EXTT5=
EXTT6=
EXTT7=
EXTT8=
EXTT9=
EXTT10=
EXTT11=
EXTT12=
PLAYORDER=
